<?xml version="1.0" encoding="utf-8"?>
<!-- Generator: Adobe Illustrator 16.0.0, SVG Export Plug-In . SVG Version: 6.00 Build 0)  -->
<!DOCTYPE svg PUBLIC "-//W3C//DTD SVG 1.1//EN" "http://www.w3.org/Graphics/SVG/1.1/DTD/svg11.dtd">
<svg version="1.1" id="Layer_1" xmlns="http://www.w3.org/2000/svg" xmlns:xlink="http://www.w3.org/1999/xlink" x="0px" y="0px"
	 width="612px" height="792px" viewBox="0 0 612 792" enable-background="new 0 0 612 792" xml:space="preserve">
<path fill-rule="evenodd" clip-rule="evenodd" fill="#FFFFFF" d="M311,397.976c-23.484-0.081-46.976-0.549-70.451-0.103
	c-14.965,0.285-22.559-2.911-21.562-21.544c0.543-10.175,0.096-10.209-9.986-10.23c-6.664-0.015-13.329,0.056-19.992-0.003
	c-7.159-0.062-11.796-3.006-13.7-8.543c-1.853-5.388,0.022-11.271,5.081-15.595c8.55-7.31,17.143-14.57,25.713-21.856
	c26.582-22.6,53.15-45.217,79.761-67.782c3.143-2.665,6.46-5.137,9.806-7.546c2.942-2.118,12.064-1.133,15.437,1.696
	c12.171,10.209,24.269,20.505,36.42,30.737c25.131,21.163,50.251,42.34,75.445,63.428c4.396,3.681,7.877,7.732,7.139,13.823
	c-0.855,7.048-5.985,11.494-13.202,11.59c-9.163,0.122-18.331,0.188-27.489-0.028c-3.487-0.082-4.754,1.002-4.586,4.498
	c0.246,5.153,0.13,10.323,0.168,15.486c-1.301,2.668-2.603,5.335-3.904,8.002c-0.218,0.023-0.305,0.144-0.26,0.359
	c-0.892,0.214-1.586,0.671-1.938,1.557l0.029-0.034c-5.799,2.682-12.1,0.905-18.072,2.038c-0.579,0.005-1.158,0.009-1.738,0.014
	c-4.08-0.801-8.16-0.957-12.24,0.013c-2.621-0.004-5.242-0.007-7.864-0.011C329.674,396.964,320.337,397.25,311,397.976z
	 M299.278,366.16c14.875,0.219,28.248-4.349,40.482-12.344c8.408-5.494,15.354-12.595,20.779-21.084
	c2.388-3.737,1.767-8.233-1.189-10.367c-3.169-2.287-7.314-1.545-10.109,1.918c-1.454,1.802-2.657,3.808-4.131,5.591
	c-11.256,13.618-25.605,21.381-43.36,22.045c-22.244,0.831-39.239-8.91-52.05-26.682c-3.285-4.557-6.905-5.513-10.525-2.943
	c-3.393,2.408-3.724,6.702-0.79,11.033C252.986,354.881,273.579,365.276,299.278,366.16z"/>
<path fill-rule="evenodd" clip-rule="evenodd" fill="#FFFFFF" d="M203.629,523.066c-3.03,3.382-3.108,6.906-4.409,9.896
	c-2.229,5.123-5.74,8.161-11.258,8.147c-5.212-0.013-8.271-3.248-10.208-7.935c-1.009-2.441-0.609-6.748-3.799-6.67
	c-1.95,0.048-1.755,4.44-2.613,6.842c-2.009,5.627-5.99,8.306-11.804,7.538c-5.071-0.67-8.487-4.809-8.697-10.514
	c-0.242-6.572,1.884-12.819,2.648-19.259c0.993-8.359,3.714-16.408,4.456-24.852c0.461-5.248,4.65-9.423,9.011-10.097
	c5.219-0.807,9.719,1.812,12.299,7.305c2.535,5.396,4.964,10.842,7.446,16.263c0.385,0.842,0.226,2.16,1.587,2.21
	c1.475,0.055,1.857-1.271,2.329-2.269c2.835-6.002,5.4-12.142,8.469-18.019c2.07-3.965,5.665-6.019,10.333-5.504
	c3.741,0.412,7.244,2.199,7.992,5.761c0.914,4.352,2.645,8.44,3.373,12.826c1.798,10.819,3.736,21.616,5.7,32.407
	c1.273,6.997-1.911,12.372-8.244,13.648c-6.357,1.28-11.8-2.776-13.078-9.731C204.717,528.642,204.236,526.227,203.629,523.066z"/>
<path fill-rule="evenodd" clip-rule="evenodd" fill="#FFFFFF" d="M340.917,419.996c0.073-3.225,0.146-6.449,0.22-9.675
	c2.356-1.962,3.19-5.303,6.457-6.527c5.722-2.146,9.703-0.489,15.213,6.788c0.035,4.476,0.072,8.95,0.109,13.426
	c-0.042,11.327-0.084,22.653-0.125,33.979l-0.139,0.25c0,0,0.189,0.214,0.189,0.217c-1.133,1.621-1.797,3.422-2.077,5.371
	c0,0,0.048-0.02,0.05-0.019c-2.035,1.356-4.072,2.711-6.109,4.066c-1.234,0.06-2.468,0.12-3.702,0.181
	c-1.964-0.738-3.927-1.477-5.892-2.216c0,0,0.045,0.049,0.045,0.05c-1.462-2.888-3.737-5.112-5.99-7.354
	c-3.633-4.862-7.265-9.726-11.473-15.36c-1.225,5.083-0.461,9.321-0.668,13.487c-0.211,4.243-1.867,7.524-5.668,9.83
	c-4.057,2.461-7.699,1.389-11.22-0.788c-3.224-1.993-4.385-5.226-4.388-8.913c-0.01-14.301,0.061-28.602-0.092-42.9
	c-0.026-2.446,1.53-4.377,1.413-6.733c1.271-1.072,2.544-2.144,3.816-3.215l0.074-0.03c3.993-1.388,7.94-1.096,11.855,0.331
	c0,0-0.046-0.038-0.045-0.039c1.505,2.862,3.707,5.148,6.046,7.324c-0.035,0.246,0.067,0.401,0.308,0.467
	c0.949,1.693,1.777,3.492,3.764,4.272c0.08,0.762,0.174,1.516,1.107,1.731c1.529,3.069,3.91,5.41,6.542,8.264
	C341.373,423.781,341.119,421.887,340.917,419.996z"/>
<path fill-rule="evenodd" clip-rule="evenodd" fill="#FFFFFF" d="M430.962,430.093c0.037,0.635,0.074,1.27,0.111,1.903
	c0.007,2.003,0.013,4.005,0.02,6.008c-0.053,0.943-0.105,1.887-0.157,2.831c-0.725,2.027-1.898,3.914-1.908,6.161
	c-0.182,0.288-0.267,0.603-0.254,0.943c-0.847,0.344-1.058,1.101-1.224,1.887c-0.223,0.63-0.445,1.259-0.668,1.889
	c-0.892,0.511-1.642,1.113-1.495,2.299c-0.143,0.294-0.287,0.588-0.432,0.882c-4.61,4.727-9.943,8.414-15.977,11.094
	c-0.656,0.087-1.312,0.174-1.97,0.261c-7.225,1.453-14.554,0.534-21.82,0.978c-5.023,0.308-8.915-1.679-12.146-5.319
	c-0.161-0.668-0.322-1.337-0.484-2.005c-0.078-14.584-0.178-29.167-0.224-43.75c-0.03-9.382,3.283-12.651,12.826-12.922
	c7.299-0.208,14.569,0.232,21.837,0.796c8.445,2.612,15.182,7.506,19.994,14.97c-0.032,0.623,0.201,1.065,0.84,1.229
	c0,0-0.112-0.086-0.11-0.087C428.803,423.457,429.883,426.774,430.962,430.093z M393.229,435.604c0,2.993-0.008,5.986,0.002,8.979
	c0.006,1.666,0.488,2.834,2.467,3.053c7.324,0.811,13.322-4.088,14.102-11.622c0.659-6.372-5.265-12.548-12.281-12.812
	c-2.727-0.104-4.504,0.688-4.322,3.921C393.354,429.942,393.229,432.777,393.229,435.604z"/>
<path fill-rule="evenodd" clip-rule="evenodd" fill="#FFFFFF" d="M175.108,434.46c0.003-6.664-0.055-13.328,0.02-19.991
	c0.077-6.875,4.592-11.67,10.927-11.771c5.985-0.096,10.548,4.959,10.674,11.842c0.03,1.665,0.215,3.359-0.015,4.992
	c-0.604,4.305,0.815,5.839,5.412,5.526c6.99-0.474,6.983-0.136,6.985-7.384c0.001-2.324-0.165-4.741,0.39-6.954
	c1.15-4.585,6.054-8.218,10.229-8.039c5.234,0.224,9.144,3.329,10.437,8.45c0.363,1.438,0.509,2.966,0.513,4.452
	c0.037,13.327,0.152,26.656-0.027,39.981c-0.13,9.692-8.52,15.093-16.265,10.753c-3.331-1.866-4.962-4.792-5.269-8.487
	c-0.137-1.654,0.003-3.33-0.002-4.995c-0.028-7.425-0.034-7.246-7.552-7.358c-3.539-0.054-5.312,0.706-4.833,4.646
	c0.299,2.46,0.122,4.994,0,7.487c-0.244,5.031-4.251,9.346-9.327,10.181c-4.67,0.768-9.525-2.221-11.364-6.963
	c-0.799-2.061-0.963-4.19-0.95-6.377C175.131,447.787,175.105,441.123,175.108,434.46z"/>
<path fill-rule="evenodd" clip-rule="evenodd" fill="#FFFFFF" d="M339.545,535.833c-16.396,12.464-37.283,6.104-43.763-13.259
	c-0.659-1.969-0.75-3.913-0.758-5.891c-0.043-9.831-0.064-19.661-0.011-29.492c0.033-6.265,4.452-10.924,10.322-11.058
	c6.024-0.138,10.606,4.18,10.796,10.563c0.257,8.654,0.292,17.316,0.348,25.976c0.025,3.85,0.144,7.631,5.16,8.146
	c3.619,0.372,5.57-2.562,5.613-8.224c0.075-9.661,0.094-19.323,0.132-28.987c2.226-2.939,4.599-5.727,7.94-7.483
	c0.557-0.062,1.113-0.126,1.671-0.189c1.312,0.056,2.623,0.111,3.935,0.167l-0.018-0.031c4.617,3.533,8.983,7.214,8.167,13.932
	c-0.019,8.999-0.038,17.998-0.057,26.996C347.625,524.163,344.242,530.329,339.545,535.833z"/>
<path fill-rule="evenodd" clip-rule="evenodd" fill="#FFFFFF" d="M299.08,456.933c0.037,5.849-2.885,8.949-7.574,10.469
	c-4.418,1.431-8.602,0.379-10.899-3.629c-2.404-4.196-5.701-5.098-9.94-4.703c-0.165,0.016-0.333,0-0.5,0.003
	c-5.935,0.097-11.696-0.934-16.203,5.406c-3.37,4.739-9.079,4.424-13.111,1.332c-3.716-2.85-5.196-8.696-2.935-13.555
	c6.755-14.517,13.806-28.896,20.503-43.438c1.879-4.08,5.176-5.737,8.997-5.933c4.07-0.208,7.934,1.264,9.905,5.379
	c4.635,9.679,9.188,19.396,13.761,29.104c2.262,4.803,4.368,9.685,6.801,14.399C298.863,453.664,299.024,455.54,299.08,456.933z
	 M268.039,437.651c-0.693,2.066-3.557,3.555-1.78,5.843c0.469,0.604,3.274,0.49,3.637-0.114
	C271.169,441.25,268.715,439.719,268.039,437.651z"/>
<path fill-rule="evenodd" clip-rule="evenodd" fill="#FFFFFF" d="M411.123,500.671c0.141-0.254,0.104-0.479-0.111-0.673
	c-0.055-1.668-0.107-3.335-0.161-5.003c0.078-1.262,0.155-2.522,0.233-3.784c1.056-1.57,1.91-3.217,2.002-5.16
	c0,0-0.03,0.028-0.03,0.027c0.933-0.311,1.274-1.082,1.514-1.936c0.162-0.336,0.324-0.671,0.486-1.007
	c1.982-1.707,3.965-3.414,5.947-5.122c0.851,0.027,1.643-0.071,2.062-0.963c1.081-0.114,2.292,0.152,3.019-1.017
	c7.884-0.878,15.733-1.624,22.937,2.954c3.575,2.272,5.955,5.172,6.062,9.622c0.184,7.629-5.701,11.54-12.684,8.267
	c-2.077-0.974-3.942-2.395-5.924-3.581c-1.407-0.843-2.98-2.159-4.278-0.071c-1.437,2.312,0.461,3.397,2.134,4.125
	c4.092,1.777,8.448,3.021,12.374,5.092c9.01,4.755,12.625,13.341,10.307,23.389c-2.143,9.286-9.735,15.631-19.529,16.142
	c-3.483,0.182-6.984,0.027-10.478,0.026c-1.845-0.665-3.707-1.285-5.531-2.004c-6.025-2.375-10.705-6.013-11.861-12.883
	c0.486-1.066,0.477-2.137,0.018-3.209c3.242-8.026,9.774-10.013,16.609-5.064c1.736,1.257,3.438,2.589,5.287,3.657
	c1.396,0.805,3.002,0.885,3.783-0.944c0.685-1.606,0.096-2.896-1.51-3.671c-1.197-0.577-2.332-1.371-3.592-1.714
	c-6.523-1.776-12.338-4.736-17.014-9.721c0.086-0.213,0.021-0.362-0.192-0.446C412.867,504.05,412.314,502.247,411.123,500.671z"/>
<path fill-rule="evenodd" clip-rule="evenodd" fill="#FFFFFF" d="M233.26,508.947c0-7.342-0.085-13.671,0.021-19.997
	c0.136-8.038,4.282-12.355,12.275-12.533c7.154-0.16,14.335-0.269,21.468,0.176c6.296,0.393,10.018,4.689,9.885,10.32
	c-0.129,5.462-3.781,8.993-10.011,9.607c-1.152,0.114-2.327,0.032-3.49,0.004c-1.662-0.04-3.332-0.241-4.982-0.136
	c-1.402,0.09-3.281-0.118-3.398,2.028c-0.141,2.575,2.042,2.184,3.549,2.367c1.13,0.138,2.311-0.194,3.472-0.243
	c5.428-0.228,9.316,2.692,9.633,7.206c0.357,5.078-2.887,8.11-8.908,8.304c-1.664,0.053-3.33,0.03-4.994,0.084
	c-1.359,0.044-2.697,0.091-2.844,1.99c-0.17,2.199,1.393,2.564,2.883,2.516c3.493-0.116,6.986-0.504,10.447,0.228
	c7.785,1.646,10.752,8.259,6.932,15.154c-1.861,3.359-4.824,4.313-8.344,4.306c-7.327-0.017-14.654,0-21.98-0.077
	c-7.328-0.077-9.825-2.019-11.062-9.395C232.539,523.273,233.603,515.574,233.26,508.947z"/>
<path fill-rule="evenodd" clip-rule="evenodd" fill="#FFFFFF" d="M406.955,496.108c-0.02,2.547-0.037,5.095-0.055,7.643
	c-1.045,1.139-1.016,2.595-1.185,3.991c0,0,0.104,0.019,0.104,0.02c-0.639,0.174-0.809,0.625-0.73,1.226
	c-0.17,0.255-0.227,0.534-0.17,0.836c-2.572,3.71-5.781,6.845-9.006,9.967c-4.286,1.724-8.629,3.085-13.352,2.979
	c-2.377-0.053-3.602,1.351-3.423,3.823c0.048,0.657-0.015,1.321-0.017,1.982c-0.018,5.077-1.138,9.66-6.48,11.637
	c-5.492,2.031-9.99,0.156-13.611-4.214c-2.404-16.844-1.104-33.759-0.799-50.643c0.084-4.639,3.281-7.419,7.896-8.321
	c1.625-0.317,3.245-0.658,4.867-0.989c2.59,0.015,5.18,0.029,7.771,0.044c4.085,0.564,8.168,1.129,12.251,1.692
	c1.674,0.736,3.349,1.472,5.023,2.208C401.723,483.979,404.943,489.634,406.955,496.108z M385.75,499.545
	c-0.439-2.478-2.148-3.511-4.553-3.34c-1.559,0.11-4.042,0.434-3.734,2.135c0.34,1.889,1.012,4.668,4.162,4.612
	C383.89,502.912,385.422,502.059,385.75,499.545z"/>
</svg>
